<?xml version="1.0" encoding="utf-8"?>
<!-- Generator: Adobe Illustrator 22.0.1, SVG Export Plug-In . SVG Version: 6.00 Build 0)  -->
<svg version="1.1" xmlns="http://www.w3.org/2000/svg" xmlns:xlink="http://www.w3.org/1999/xlink" width="40px" height="40px" x="0px" y="0px"
	 viewBox="0 0 40 40" style="enable-background:new 0 0 40 40;" xml:space="preserve">
<g>
	<path d="M6.7,5c0.7-0.1,4,0.7,4,2.2c0,0.5-0.3,1-0.8,1c-1.1,0-1.7-1.9-3.3-3.1C6.6,5.1,6.6,5,6.7,5z"/>
	<path d="M0.9,12c0.6,0.1,3.6,0.7,3.6,2.4c0,0.7-0.4,0.9-0.9,0.9c-1.1,0-0.9-1.5-2.8-3.2C0.7,12,0.8,12,0.9,12z"/>
	<path d="M13.3,31.8c0.8,0,1.4-0.4,2-1.4c0.6-0.9,4.1-8.1,4.5-8.9c0.2-0.3,0.3-0.2,0.2,0.1c-2.9,9.1-3.8,9.7-3.8,11.6
		c0,0.9,1.2,2.9,1.2,4.2c0,0.7-0.5,1.1-1,1.1c-1,0-1.2-0.7-1.2-1.8v-1.4c0-2.4-1.3-3-1.8-3.3C13.1,31.8,13.1,31.8,13.3,31.8z"/>
	<path d="M29.8,4.4c0.9,0.2,4.6,1.4,4.6,3.2c0,0.6-0.4,1-0.8,1c-1.3,0-1.9-3-3.8-4.1C29.7,4.5,29.7,4.4,29.8,4.4z"/>
	<path d="M30.8,35.6c0.8-0.7,3.8-3.8,3.8-5.2l2,1.5c0.1,0.1,0.2,0.2,0.2,0.4c0,0.1,0,0.1-0.1,0.2c-0.2,0.3-1.2,0.1-1.5,0.4
		c-0.5,0.4-3.2,2.4-4.3,2.9C30.6,35.9,30.6,35.7,30.8,35.6z"/>
	<path d="M24.2,20.2c0.8,0.1,6.1,1.9,6.1,4.3c0,0.5-0.3,1.1-1,1.1c-1.2,0-1.6-2.7-5.3-5.2C24.1,20.3,24.1,20.2,24.2,20.2z"/>
	<path d="M8.5,28.2l-5.1,4.5c-0.2,0.2-0.2,0.8-0.4,1c-0.1,0-0.1,0.1-0.2,0.1c-0.2,0-0.3-0.1-0.4-0.3l-1.7-2.1h0.1
		c2,0,6.6-2.8,7.5-3.2C8.6,28,8.6,28.1,8.5,28.2z"/>
	<path d="M10.5,25.9v-5.4c0-0.6-0.2-1.9-0.4-2.4l2.3,0.7c0.2,0.1,0.4,0.1,0.4,0.4c0,0.3-0.8,0.6-0.8,0.8v5.8H10.5z"/>
	<path d="M22.8,15.4c0,0,0.8-1.3,1.2-1.3c0.3,0,1.9,1.3,1.9,1.6c0,0.3-0.1,0.3-0.4,0.3H11.7c-0.8,0-2.3,0-3.2,0.2l-0.5-1
		c0.6,0.1,2.7,0.2,3.4,0.2H22.8z"/>
	<path d="M21.5,9.9h3.2c0.4,0,0.8-1.2,1.1-1.2c0.3,0,1.8,1.4,1.8,1.6c0,0.2-0.1,0.3-0.3,0.3h-5.5L21.5,9.9z"/>
	<path d="M16.1,12.4V3.8c0-0.5-0.2-1.8-0.5-2.3l2.4,0.6c0.3,0.1,0.5,0.2,0.5,0.5c0,0.3-0.8,0.6-0.8,0.9v3.1v0.7v5.1H16.1z"/>
	<path d="M39.2,17.5c-1.9,4.2-2.6,5.2-2.7,5.8c0,0.6,0.3,1.3,0,1.6C36.5,25,36.3,25,36.2,25c-0.4,0-0.7-0.1-1-0.3
		c-0.6-0.4-2.4-1.8-2.9-5.7c-0.3-2.2,0.2-4.7-1.3-6.4c0.7,0,2.5,1.1,2.4,2.2c-0.1,0.8-0.3,2.1-0.3,3c0,2.6,1,5,2,5
		c0.6,0,2.2-2.9,3.8-5.4C39.2,17.1,39.3,17.2,39.2,17.5z"/>
	<path d="M21.8,26.4c0,0,1.9-0.3,3.6,2.2c0.8,1.2,1.5,2.8,1.5,4.4c0,0.9-0.3,1.3-0.6,1.3c-0.6,0-0.8-0.8-1.4-1
		c-0.5-0.2-1.1-0.5-2.1-0.6c-0.3,0-0.3-0.2-0.1-0.2c2.1-0.3,3-0.1,2.5-1.5C24.7,29.5,23.8,27.4,21.8,26.4 M21.8,26.4"/>
</g>
</svg>
